<?xml version="1.0" encoding="utf-8"?>
<!-- Generator: Adobe Illustrator 27.7.0, SVG Export Plug-In . SVG Version: 6.00 Build 0)  -->
<svg version="1.1" id="Capa_1" xmlns="http://www.w3.org/2000/svg" xmlns:xlink="http://www.w3.org/1999/xlink" x="0px" y="0px"
	 viewBox="0 0 400 400" style="enable-background:new 0 0 400 400;" xml:space="preserve">
<style type="text/css">
	.st0{fill:#FFFFFF;}
</style>
<g>
	<path class="st0" d="M200,399.7L200,399.7C89.7,399.7,0.3,310.3,0.3,200l0,0C0.3,89.7,89.7,0.3,200,0.3l0,0
		c110.3,0,199.7,89.4,199.7,199.7l0,0C399.7,310.3,310.3,399.7,200,399.7z"/>
</g>
<g>
	<path d="M281.6,125.7H140c-6.7,0-12.8,3.6-16.4,9.4l-5.8-5.8c-2.3-2.3-5.5-3.6-8.8-3.6c0,0-0.1,0-0.1,0c-3.3,0-6.4,1.3-8.7,3.7
		c-40.2,41-19.6,98.6,16.5,134.7c23.9,23.9,55.9,40.4,86.1,40.4c18.6,0,36.6-6.3,51.5-21c2.3-2.3,3.7-5.3,3.7-8.7
		c0-0.7-0.1-1.4-0.2-2.1h22c12.1,0,22-9.9,22-22V147.6C301.8,135.5,292.7,125.7,281.6,125.7z M279.8,132.9c8.2,0,14.8,6.6,14.8,14.7
		v15.6l-68.1,48.2c-8.5,6-22.2,6.6-29.9,1.2l-51.9-36.8l0.9-0.9c0.6-0.6,1.1-1.3,1.6-1.9c0,0,0-0.1,0.1-0.1c1.3-2,2-4.3,2-6.7
		c0-2.4-0.7-4.8-2-6.7c0,0,0-0.1-0.1-0.1c-0.4-0.7-1-1.3-1.6-1.9L129,140.5c2.5-4.6,7.5-7.6,12.8-7.6L279.8,132.9L279.8,132.9z
		 M249.3,278.3c-35.8,35.2-91.3,16.9-127.5-19.4c-34.8-34.9-53.4-86.9-16.4-124.6l0,0c0.9-0.9,2.2-1.5,3.6-1.5h0
		c1.4,0,2.8,0.6,3.7,1.5l27.9,27.9c0.5,0.5,0.9,1.1,1.2,1.7c0.3,0.6,0.4,1.3,0.4,2c0,0.7-0.1,1.4-0.4,2c-0.3,0.6-0.6,1.2-1.2,1.7
		l-21.8,21.8c-1.1,1.1-1.3,2.7-0.7,4.1c0.7,1.5,1.4,2.9,2.1,4.4c0,0.1,0,0.2,0.1,0.3c2.5,5.4,4.9,10.1,7.3,14.6
		c0.3,0.6,0.7,1.3,1,1.9c0.4,0.8,0.9,1.6,1.3,2.3c0.7,1.2,1.3,2.3,2,3.4c0.1,0.1,0.1,0.2,0.2,0.3c3.9,6.4,7.8,11.6,12.5,16.3
		c9.9,9.9,22.4,16.7,43.5,26.4c1.4,0.6,3,0.3,4.1-0.7l21.8-21.8c2-2,5.5-2,7.5,0l27.9,27.9c1,1,1.5,2.3,1.5,3.8
		C250.8,276.1,250.2,277.4,249.3,278.3L249.3,278.3z M279.8,265.5h-25.8L226.5,238c-4.7-4.7-12.9-4.7-17.7,0l-20,20
		c-2.4-1.1-4.6-2.2-6.8-3.2c-15-7.2-24.7-13-32.4-20.7c-5.1-5.1-9.4-11.2-13.6-18.7c-0.3-0.5-0.6-1-0.9-1.6c-0.3-0.6-0.6-1.2-1-1.8
		c-2.2-4.2-4.5-8.9-7-14.2v-4.3l12.6-12.6l52.9,37.5c4.8,3.4,11.1,5.1,17.6,5.1c7.2,0,14.7-2.1,20.5-6.3l63.9-45.2v78.8
		C294.6,258.9,288,265.5,279.8,265.5L279.8,265.5z"/>
	<path d="M202.8,305.4c-28.9,0-61.3-15.2-86.8-40.7c-36.5-36.5-57.2-94.6-16.5-136.1c2.5-2.6,5.8-4,9.4-4h0.1c3.6,0,7.1,1.4,9.5,3.9
		l4.9,4.9c4-5.5,10.1-8.8,16.6-8.8h141.7c11.7,0,21.2,10.3,21.2,22.9v103.1c0,12.7-10.3,23-23,23h-20.9c0,0.4,0,0.7,0,1.1
		c0,3.6-1.4,6.9-4,9.4C240.7,298.2,223.1,305.4,202.8,305.4z M108.8,126.6c-3,0-5.8,1.2-7.9,3.4c-39.7,40.5-19.3,97.5,16.5,133.3
		c25.1,25.1,57,40.1,85.4,40.1c19.8,0,36.9-7,50.8-20.7c2.2-2.1,3.4-4.9,3.4-7.9c0-0.6-0.1-1.2-0.2-1.9l-0.2-1.2h23.2
		c11.6,0,21-9.4,21-21V147.6c0-11.5-8.6-20.9-19.2-20.9H140c-6.2,0-12,3.3-15.6,8.9l-0.7,1.1l-6.7-6.7c-2.1-2.1-5.1-3.3-8.1-3.3
		H108.8z M202.7,298.2c-28.4,0-58.8-15.7-81.6-38.5c-35.2-35.2-53.9-87.9-16.5-126c1.2-1.2,2.7-1.8,4.3-1.8c1.7,0,3.3,0.7,4.5,1.8
		l27.9,27.9c0.6,0.6,1,1.2,1.4,2c0.3,0.8,0.5,1.6,0.5,2.4s-0.2,1.6-0.5,2.4c-0.3,0.8-0.8,1.5-1.4,2.1l-21.8,21.8
		c-0.8,0.8-1,1.9-0.5,2.9l1,2.1c0.4,0.8,0.7,1.6,1.1,2.3l0.1,0.2v0.1c2.5,5.2,4.8,10,7.2,14.5c0.2,0.3,0.3,0.6,0.5,1
		c0.2,0.3,0.4,0.7,0.5,1l1.3,2.3c0.7,1.2,1.3,2.3,2,3.4c0,0.1,0.1,0.2,0.2,0.4c4,6.5,7.9,11.6,12.3,16c9.8,9.8,22.3,16.5,43.2,26.2
		c1,0.5,2.2,0.3,3-0.5l21.8-21.8c2.4-2.4,6.5-2.4,8.9,0l27.9,27.9c1.2,1.2,1.8,2.8,1.8,4.5c0,1.6-0.6,3.2-1.8,4.3l0,0
		C236.3,292.4,219.8,298.2,202.7,298.2z M108.9,133.8c-1.1,0-2.1,0.4-2.9,1.2c-36.5,37.2-18,88.7,16.4,123.2
		c35.9,35.9,90.8,54,126.1,19.3l0,0c0.7-0.7,1.2-1.7,1.2-2.8c0-1.2-0.4-2.3-1.2-3.1l-27.9-27.9c-0.8-0.8-1.9-1.2-3-1.2
		c-1.2,0-2.3,0.4-3,1.2l-21.8,21.8c-1.4,1.4-3.4,1.7-5.2,0.9c-21.2-9.8-33.8-16.6-43.8-26.6c-4.5-4.5-8.5-9.8-12.6-16.4l-0.1-0.2
		c0,0,0-0.1-0.1-0.1c-0.7-1.2-1.3-2.3-2-3.5l-1.3-2.4c-0.2-0.3-0.4-0.7-0.5-1c-0.2-0.3-0.4-0.7-0.5-1c-2.4-4.5-4.8-9.3-7.3-14.6
		c-0.1-0.2-0.2-0.4-0.2-0.5c-0.3-0.7-0.7-1.4-1-2.2l-1-2.1c-0.8-1.8-0.5-3.8,0.9-5.2l21.8-21.8c0.4-0.4,0.7-0.8,0.9-1.4
		c0.2-0.5,0.3-1.1,0.3-1.6s-0.1-1.1-0.3-1.6c-0.2-0.5-0.5-1-0.9-1.4L112,135.1C111.2,134.3,110.1,133.8,108.9,133.8z M279.8,266.5
		h-26.2l-27.9-27.9c-4.3-4.3-11.9-4.3-16.3,0L189,259.1l-1.4-0.6c-2.1-1-4.1-1.9-6-2.9c-14-6.8-24.4-12.6-32.7-20.9
		c-4.8-4.9-9.2-10.9-13.7-18.9c-0.3-0.5-0.6-1-0.9-1.6c-0.2-0.4-0.5-0.9-0.7-1.3l-0.3-0.6c-2.1-3.9-4.3-8.4-7.1-14.2l-0.1-0.2v-5
		l13.5-13.5l53.6,38c4.5,3.2,10.5,4.9,17.1,4.9c7.2,0,14.5-2.2,20-6.1l65.5-46.4v80.7c0,8.4-6.6,15.3-14.8,15.8v0L279.8,266.5z
		 M254.5,264.5l25.4,0c7.6,0,13.8-6.2,13.8-13.8v-76.9L231.3,218c-5.9,4.2-13.4,6.5-21.1,6.5c-6.9,0-13.4-1.9-18.2-5.3l-52.2-37
		l-11.7,11.7v3.7c2.7,5.7,4.9,10.1,6.9,13.9l0.3,0.6c0.2,0.4,0.4,0.8,0.6,1.2c0.3,0.5,0.6,1.1,0.9,1.6c4.4,7.9,8.7,13.7,13.4,18.5
		c7.1,7.1,15.8,12.6,32.1,20.5c1.9,0.9,3.9,1.9,6,2.9l0.1,0.1l19.5-19.5c5.1-5.1,14-5.1,19.1,0L254.5,264.5z M210.1,217.2
		c-5.2,0-10.3-1.3-14-3.9l-52.9-37.5l1.7-1.7c0.6-0.6,1.1-1.2,1.4-1.7c0.1-0.1,0.1-0.2,0.2-0.2c1.2-1.9,1.8-4,1.8-6.1
		c0-2.2-0.6-4.4-1.8-6.2l-0.1-0.1c0,0,0,0,0,0l-0.1-0.1c-0.3-0.5-0.8-1-1.4-1.6l-17.3-17.3l0.4-0.7c2.8-5,8-8.1,13.7-8.1h137.6
		l0.5,0c8.7,0,15.8,7,15.8,15.7v16.1l-0.4,0.3l-68.1,48.2C222.4,215.5,216.2,217.2,210.1,217.2z M146.4,175.6l50.9,36.1
		c7.3,5.2,20.5,4.7,28.7-1.2l67.6-47.9v-15.1c0-7.4-6-13.5-13.4-13.7l0,0H141.8c-4.7,0-9.1,2.4-11.6,6.4l16.2,16.2
		c0.7,0.7,1.3,1.4,1.7,2c0.1,0.1,0.1,0.2,0.2,0.3c1.4,2.1,2.1,4.6,2.1,7.2c0,2.5-0.7,5-2.1,7.2v0l-0.2,0.3
		C147.7,174.1,147.1,174.8,146.4,175.6L146.4,175.6z"/>
</g>
</svg>
