<?xml version="1.0" encoding="utf-8"?>
<!-- Generator: Adobe Illustrator 27.7.0, SVG Export Plug-In . SVG Version: 6.00 Build 0)  -->
<svg version="1.1" id="Capa_1" xmlns="http://www.w3.org/2000/svg" xmlns:xlink="http://www.w3.org/1999/xlink" x="0px" y="0px"
	 viewBox="0 0 400 400" style="enable-background:new 0 0 400 400;" xml:space="preserve">
<style type="text/css">
	.st0{fill:#FFFFFF;}
</style>
<g>
	<path class="st0" d="M200,399.7L200,399.7C89.7,399.7,0.3,310.3,0.3,200l0,0C0.3,89.7,89.7,0.3,200,0.3l0,0
		c110.3,0,199.7,89.4,199.7,199.7l0,0C399.7,310.3,310.3,399.7,200,399.7z"/>
</g>
<g>
	<path d="M313.2,183.6l-13.5-29.1c-1.8-3.9-6.4-5.5-10.2-3.7c0,0,0,0,0,0l-29.1,13.6c-3.9,1.8-5.5,6.4-3.7,10.2
		c0.9,1.9,2.4,3.3,4.3,4l10.3,3.8l-9.9,27.2c-0.8,0.2-1.6,0.4-2.3,0.7c-2.2-4.7-6.2-8.2-11.1-9.7l-34-10.1c-2.3-0.7-3.9-2.8-3.9-5.2
		v-3.6c11.5-4.4,20.1-14.1,23-26c7.3,0.8,13.9-4.4,14.7-11.7c0.8-6.7-3.7-12.9-10.3-14.4l0-0.2c3.7-22.7-11.7-44.1-34.5-47.8
		c-22.7-3.7-44.1,11.7-47.8,34.5c-0.7,4.4-0.7,8.9,0,13.3l0,0.2c-7.1,1.7-11.5,8.9-9.8,16.1c1.5,6,6.8,10.2,12.9,10.1
		c0.4,0,0.8-0.1,1.2-0.1c3,11.9,11.6,21.6,23,26v3.6c0,2.4-1.6,4.5-3.9,5.2l-34,10.1c-7.6,2.3-12.9,9.3-12.8,17.3v39.9
		c0,0,0,0,0,0.1c-0.6,1.9-1,3.9-1,5.9c0,0.3,0.1,0.5,0.1,0.8l-18.4,16.8c-2.2-0.9-4.6-1.3-7-1.4c-10.8-0.1-19.5,8.6-19.6,19.4
		c-0.1,10.8,8.6,19.5,19.4,19.6c9.9,0,18.2-7.3,19.4-17.1l21.5-19.2c7.4,1.6,15.1-1.3,19.6-7.4h32.3c6.4,8.6,18.5,10.4,27.1,4.1
		c4.1-3.1,6.9-7.6,7.7-12.7l30.2-19.2c1,0.2,2,0.3,3.1,0.3c10.8,0,19.5-8.7,19.5-19.5c0-3.5-1-7-2.8-10l10.2-27.9l10.3,3.7
		c4,1.5,8.4-0.6,9.9-4.6C314.1,187.6,314.1,185.5,313.2,183.6z M240.1,142.4c0,3.1-2.5,5.5-5.5,5.5l0,0l1.7-10.7
		C238.5,138,240,140.1,240.1,142.4z M170.6,100.7c12.1-14.2,33.5-16,47.7-3.8c8,6.8,12.4,17,11.9,27.5c-0.9-0.8-1.8-1.6-2.7-2.5
		c-2.8-2.8-5.3-5.9-7.4-9.3c-1-1.7-3.1-2.3-4.9-1.5c-5.9,2.5-12.3,3.8-18.8,3.7c-6.4,0.1-12.8-1.2-18.8-3.7
		c-1.8-0.8-3.9-0.1-4.9,1.5c-2.1,3.4-4.6,6.5-7.4,9.3c-0.9,0.9-1.8,1.7-2.7,2.5C162.2,115.8,165,107.3,170.6,100.7z M153,142.4
		c0-2.3,1.5-4.3,3.6-5.1l1.7,10.6C155.3,147.8,153,145.4,153,142.4z M166.7,151.2l-2.9-17.8c5.3-3.8,10-8.5,13.7-13.9
		c12.2,4.1,25.5,4.1,37.7,0c3.7,5.4,8.4,10.1,13.7,13.9l-2.9,17.8c-2.7,16.4-18.1,27.5-34.5,24.9
		C178.8,173.9,168.8,163.9,166.7,151.2L166.7,151.2z M190.6,185.2v-1.5c3.9,0.6,7.8,0.6,11.7,0v1.5c0,5.7,3.7,10.8,9.2,12.6
		c-9.7,3.8-20.4,3.8-30.1,0C186.9,196.1,190.6,191,190.6,185.2z M147.1,208.1l24.2-7.2c4.7,4.3,15,7.6,25.1,7.6
		c10.1,0,20.3-3.3,25.1-7.6l24.2,7.2c3.2,1,5.7,3.5,6.7,6.7c-3.5,3.6-5.5,8.4-5.5,13.5c0,0.6,0.1,1.2,0.2,1.8l-25.8,15.6
		c-8.1-3.4-17.6-0.8-22.8,6.3H166c-6.1-8.2-17.6-10.2-26.2-4.5v-29.6C139.9,213.4,142.8,209.4,147.1,208.1z M105.7,311.2
		c-6.5,0-11.7-5.2-11.7-11.7s5.2-11.7,11.7-11.7c6.5,0,11.7,5.2,11.7,11.7C117.4,306,112.2,311.2,105.7,311.2z M123.8,292.5
		c-1-2.5-2.5-4.8-4.4-6.8l14-12.7c1.3,2.4,3.1,4.5,5.3,6.2L123.8,292.5z M150.6,275.4c-6.5,0-11.7-5.2-11.7-11.7s5.2-11.7,11.7-11.7
		c6.5,0,11.7,5.2,11.7,11.7C162.3,270.2,157,275.4,150.6,275.4z M169.7,267.6c0.5-2.6,0.5-5.2,0-7.8h25.2c-0.5,2.6-0.5,5.2,0,7.8
		H169.7z M214,275.4c-6.5,0-11.7-5.2-11.7-11.7S207.5,252,214,252c6.5,0,11.7,5.2,11.7,11.7C225.6,270.2,220.4,275.4,214,275.4z
		 M232.5,257.9c-0.8-2.7-2.3-5.2-4.2-7.3l21.2-12.8c1.3,2.3,3.1,4.4,5.2,6L232.5,257.9z M266.4,240c-6.5,0-11.7-5.2-11.7-11.7
		c0-6.5,5.2-11.7,11.7-11.7s11.7,5.2,11.7,11.7C278.1,234.8,272.9,240,266.4,240L266.4,240z M292.3,181.7c-1-0.3-2-0.3-3,0.1
		c-0.9,0.4-1.7,1.2-2,2.2L277.1,212c-2.2-1.4-4.7-2.4-7.3-2.9l10.1-27.8c0.7-2-0.3-4.3-2.3-5c0,0,0,0,0,0l-14-4.9l28.9-13.6
		l13.7,28.9L292.3,181.7z M196.4,168.6c-4.1,0-8.2-1.1-11.7-3.3c-1.8-1.1-2.4-3.5-1.2-5.4c1.1-1.8,3.5-2.4,5.4-1.2
		c4.7,2.8,10.5,2.8,15.1,0c1.8-1.1,4.2-0.6,5.4,1.2s0.6,4.2-1.2,5.4c0,0,0,0,0,0C204.6,167.5,200.5,168.6,196.4,168.6z"/>
</g>
</svg>
