<?xml version="1.0" encoding="utf-8"?>
<!-- Generator: Adobe Illustrator 27.4.1, SVG Export Plug-In . SVG Version: 6.00 Build 0)  -->
<svg version="1.1" id="Layer_1" xmlns="http://www.w3.org/2000/svg" xmlns:xlink="http://www.w3.org/1999/xlink" x="0px" y="0px"
	 viewBox="0 0 40 40" style="enable-background:new 0 0 40 40;" xml:space="preserve">
<style type="text/css">
	.st0{fill:#070606;}
	.st1{fill:#0E183A;}
</style>
<g>
	<path class="st0" d="M29.7,21.2l-0.4-0.3l-0.1,0.2c-0.5,1.9-1.3,3.7-1.3,3.9l0,0c-0.9,1.9-1.6,3.3-2,4.3l0,0h0.6h0.7h0.3
		c0.3,0,0.5,0.3,0.5,0.6v1.2c0,0.3-0.2,0.6-0.5,0.6h-0.3h-0.7h-0.6h-1.2c-0.3,0.4-0.6,0.7-1.1,1.3l0,0c-1.1,1.1-2,1.2-2.1,1.2l0,0
		h-1.1v1.1l-1.8,0c0,0-1-0.1-2.1-1.2c-0.3-0.3-0.8-1.1-1.6-2.4h-1.8l-1.9-1.2l1.9-1.2h0.5c-0.9-1.7-1.6-3.1-1.6-3.2l0,0
		c-0.1-0.2-1.8-4.1-1.8-6.7v-0.1c0-1.3,0-4.3,1.2-7c1.5-3.3,4.2-5,8.2-5.1v-1c0,0,0-0.1,0-0.1l0,0v0h0l2.3-1.6l-0.5,1.4l1.5-0.7
		L22.3,6c0,0,6.5,1.1,7,6.6c0.1,1,0.1,1.9,0.2,2.5c0.2,1.3,0.2,2.4,0.2,3.1v0C29.7,18.9,29.7,19.8,29.7,21.2 M20,0C9,0,0,9,0,20
		c0,11,9,20,20,20c11,0,20-9,20-20C40,9,31,0,20,0"/>
	<path class="st0" d="M20.3,33.5h1c0.1,0,0.8-0.2,1.6-1l0,0c0.3-0.3,0.6-0.6,0.8-0.8h-3.5V33.5z"/>
	<path class="st0" d="M19.6,29.3v-1.2c-0.4-0.1-1-0.4-1-1.5c0-1.1,0.6-2.3,1-3V8.3V7.9C16,8,13.4,9.6,12.1,12.6
		C11,15.2,11,18.1,11,19.4v0.1c0,2.4,1.6,6.2,1.7,6.4c0.1,0.1,0.8,1.7,1.7,3.4H19.6z"/>
	<polygon class="st0" points="13.1,30.1 13.2,30.2 12.9,30.5 13.2,30.8 13.1,30.9 13.3,31 25.1,31 25.1,30 13.3,30 	"/>
	<path class="st0" d="M17,33.6c0.8,0.8,1.5,1,1.6,1h1v-3h-3.9C16.4,33,16.8,33.5,17,33.6"/>
	<path class="st1" d="M21.7,26.6c0-0.2-0.2-0.4-0.4-0.5c0,0.2,0,0.3,0,0.5c0,0.2,0,0.3,0,0.5C21.5,27,21.7,26.8,21.7,26.6"/>
	<path class="st0" d="M24.1,21.2c0.4,0,0.7,0.3,0.7,0.7c0,0.4-0.3,0.7-0.7,0.7c-0.4,0-0.7-0.3-0.7-0.7
		C23.4,21.5,23.7,21.2,24.1,21.2 M22.9,17.3l-1.5-0.7l0.5,1.4l-1.6-1.3v6.9c0.3,0.5,0.8,1.4,1,2.2c0.4,0,0.8,0.4,0.8,0.8
		c0,0.5-0.4,0.8-0.8,0.8c-0.2,0.5-0.6,0.7-0.9,0.7v1.2h4.8l0.1-0.3c0.5-1,1.1-2.3,2-4.3c0-0.1,0.3-0.6,0.5-1.4l0.1-7.8
		c0,0-2.2,0.6-5.6,0.8L22.9,17.3z"/>
</g>
</svg>
