<?xml version="1.0" encoding="utf-8"?>
<!-- Generator: Adobe Illustrator 27.4.1, SVG Export Plug-In . SVG Version: 6.00 Build 0)  -->
<svg version="1.1" id="Capa_1" xmlns="http://www.w3.org/2000/svg" xmlns:xlink="http://www.w3.org/1999/xlink" x="0px" y="0px"
	 viewBox="0 0 327 57" style="enable-background:new 0 0 327 57;" xml:space="preserve">
<style type="text/css">
	.st0{fill:#070606;}
	.st1{fill:#0E183A;}
</style>
<g>
	<g>
		<path class="st0" d="M54.4,30.2l-0.6-0.5l-0.2,0.3c-0.7,2.8-1.8,5.3-1.9,5.5l0,0c-1.3,2.8-2.2,4.7-2.9,6.1l0,0h0.8h1H51
			c0.4,0,0.7,0.4,0.7,0.8v1.7c0,0.5-0.3,0.8-0.7,0.8h-0.4h-1h-0.8h-1.7c-0.4,0.6-0.8,1-1.6,1.8L45.4,47c-1.6,1.6-2.9,1.7-2.9,1.7
			l0,0H41v1.6l-2.5,0c-0.1,0-1.4-0.2-2.9-1.7c-0.5-0.5-1.2-1.6-2.2-3.5h-2.6l-2.7-1.7l2.7-1.7h0.8c-1.2-2.4-2.3-4.5-2.3-4.5l0,0
			c-0.1-0.2-2.5-5.9-2.5-9.5v-0.1c0-1.8,0-6.1,1.7-10c2.1-4.7,6-7.2,11.6-7.3V8.8c0-0.1,0-0.1,0-0.1l0,0v0h0l3.2-2.3l-0.7,1.9l2.1-1
			l-0.7,1.2c0,0,9.3,1.5,9.9,9.5c0.1,1.5,0.2,2.7,0.2,3.6c0.2,1.8,0.2,3.4,0.2,4.4v0C54.4,26.9,54.4,28.2,54.4,30.2 M40.6,0
			C24.8,0,12.1,12.8,12.1,28.5C12.1,44.2,24.8,57,40.6,57c15.7,0,28.5-12.8,28.5-28.5C69.1,12.8,56.3,0,40.6,0"/>
		<path class="st0" d="M41,47.8h1.4c0.1,0,1.1-0.3,2.3-1.5l0.1-0.1c0.5-0.5,0.8-0.8,1.1-1.2H41V47.8z"/>
		<path class="st0" d="M40,41.7V40c-0.6-0.1-1.5-0.6-1.5-2.1c0-1.5,0.9-3.3,1.5-4.3V11.9v-0.6c-5.2,0.1-8.8,2.4-10.7,6.7
			c-1.6,3.6-1.6,7.8-1.6,9.6v0.1c0,3.4,2.3,8.9,2.4,9.1c0.1,0.2,1.2,2.5,2.5,4.9H40z"/>
		<polygon class="st0" points="30.7,42.9 30.9,43 30.5,43.4 30.9,43.8 30.7,44 31,44.2 47.9,44.2 47.9,42.7 31,42.7 		"/>
		<path class="st0" d="M36.2,47.9c1.2,1.2,2.2,1.4,2.3,1.5H40v-4.3h-5.6C35.5,47,36,47.7,36.2,47.9"/>
		<path class="st1" d="M43,37.8c0-0.3-0.2-0.6-0.5-0.7c0,0.2,0.1,0.5,0.1,0.7c0,0.2,0,0.5-0.1,0.6C42.8,38.4,43,38.2,43,37.8"/>
		<path class="st0" d="M46.4,30.2c0.5,0,1,0.4,1,1c0,0.5-0.4,1-1,1c-0.5,0-1-0.4-1-1C45.4,30.7,45.9,30.2,46.4,30.2 M44.6,24.6
			l-2.1-1l0.7,1.9L41,23.7v9.8c0.4,0.7,1.1,1.9,1.4,3.2c0.6,0,1.1,0.6,1.1,1.2c0,0.7-0.5,1.2-1.2,1.2C42,39.7,41.4,40,41,40v1.7h6.8
			l0.2-0.4c0.7-1.4,1.5-3.3,2.9-6.1c0-0.1,0.4-0.9,0.8-2l0.1-11.1c0,0-3.2,0.9-8,1.2L44.6,24.6z"/>
	</g>
	<g>
		<path class="st0" d="M87.7,15.4h4.9v1.6h-3.2v3.2H92v1.6h-2.5v3.4h3.2v1.6h-4.9V15.4z"/>
	</g>
	<g>
		<path class="st0" d="M106.3,26.9l-1.3-4.7h-0.9v4.7h-1.7V15.4h2.7c0.8,0,1.5,0.2,2,0.7c0.5,0.5,0.7,1.2,0.7,2v1.3
			c0,0.5-0.1,1-0.3,1.4c-0.2,0.4-0.5,0.7-0.9,1l1.5,5.1H106.3z M104.1,20.5h0.9c0.3,0,0.6-0.1,0.8-0.3c0.2-0.2,0.3-0.4,0.3-0.8v-1.3
			c0-0.3-0.1-0.6-0.3-0.8c-0.2-0.2-0.4-0.3-0.8-0.3h-0.9V20.5z"/>
	</g>
	<g>
		<path class="st0" d="M126.1,15.4l-1.7,11.5h-1.9l-0.9-7.6l-0.9,7.6h-1.9L117,15.4h1.8l1,7.7l1-7.7h1.8l1,7.7l0.9-7.7H126.1z"/>
	</g>
	<g>
		<path class="st0" d="M137.7,15.4h1.7v11.5h-1.7V15.4z"/>
	</g>
	<g>
		<path class="st0" d="M148.7,15.4h1.9l2.2,7.7v-7.7h1.7v11.5h-1.8l-2.3-7.3v7.3h-1.7V15.4z"/>
	</g>
	<g>
		<path class="st0" d="M176.9,26.9l-1.3-4.7h-0.9v4.7H173V15.4h2.7c0.8,0,1.5,0.2,2,0.7c0.5,0.5,0.7,1.2,0.7,2v1.3
			c0,0.5-0.1,1-0.3,1.4c-0.2,0.4-0.5,0.7-0.9,1l1.5,5.1H176.9z M174.8,20.5h0.9c0.3,0,0.6-0.1,0.8-0.3c0.2-0.2,0.3-0.4,0.3-0.8v-1.3
			c0-0.3-0.1-0.6-0.3-0.8c-0.2-0.2-0.4-0.3-0.8-0.3h-0.9V20.5z"/>
	</g>
	<g>
		<path class="st0" d="M189.4,26.3c-0.5-0.5-0.8-1.2-0.8-2V18c0-0.8,0.3-1.5,0.8-2c0.5-0.5,1.2-0.8,2-0.8c0.8,0,1.5,0.3,2,0.8
			c0.5,0.5,0.8,1.2,0.8,2v6.3c0,0.8-0.3,1.5-0.8,2c-0.5,0.5-1.2,0.8-2,0.8C190.6,27,190,26.8,189.4,26.3z M192.2,25.1
			c0.2-0.2,0.3-0.5,0.3-0.8V18c0-0.4-0.1-0.6-0.3-0.8c-0.2-0.2-0.4-0.3-0.8-0.3c-0.3,0-0.6,0.1-0.8,0.3c-0.2,0.2-0.3,0.5-0.3,0.8
			v6.3c0,0.4,0.1,0.6,0.3,0.8c0.2,0.2,0.4,0.3,0.8,0.3C191.8,25.4,192,25.3,192.2,25.1z"/>
	</g>
	<g>
		<path class="st0" d="M212.5,15.4v11.5h-1.7V19l-1.6,7.9h-1.2l-1.6-7.9v7.9h-1.7V15.4h2.5l1.5,7.3l1.4-7.3H212.5z"/>
	</g>
	<g>
		<path class="st0" d="M223.6,15.4h2.7c0.8,0,1.5,0.2,2,0.7c0.5,0.5,0.7,1.2,0.7,2v1.3c0,0.8-0.2,1.5-0.7,2c-0.5,0.5-1.2,0.7-2,0.7
			h-1v4.7h-1.7V15.4z M226.3,20.6c0.3,0,0.6-0.1,0.8-0.3s0.3-0.4,0.3-0.8v-1.4c0-0.3-0.1-0.6-0.3-0.8c-0.2-0.2-0.4-0.3-0.8-0.3h-0.9
			v3.5H226.3z"/>
	</g>
	<g>
		<path class="st0" d="M239.2,15.4h4.9v1.6h-3.2v3.2h2.5v1.6h-2.5v3.4h3.2v1.6h-4.9V15.4z"/>
	</g>
	<g>
		<path class="st0" d="M253.8,15.4h1.7v9.8h3.1v1.6h-4.8V15.4z"/>
	</g>
	<g>
		<path class="st0" d="M265.5,15.4h5.5v1.6h-1.9v9.8h-1.7v-9.8h-1.9V15.4z"/>
	</g>
	<g>
		<path class="st0" d="M281.5,15.4h1.7v11.5h-1.7V15.4z"/>
	</g>
	<g>
		<path class="st0" d="M292.6,15.4h4.9v1.6h-3.2v3.2h2.5v1.6h-2.5v3.4h3.2v1.6h-4.9V15.4z"/>
	</g>
	<g>
		<path class="st0" d="M307.2,15.4h1.9l2.2,7.7v-7.7h1.7v11.5h-1.8l-2.3-7.3v7.3h-1.7V15.4z"/>
	</g>
	<g>
		<path class="st0" d="M93.9,41.7c0,0.3,0,0.6,0,0.9c0,0.3-0.1,0.6-0.1,0.9c-0.1,0.3-0.2,0.6-0.3,0.8c-0.1,0.3-0.3,0.5-0.5,0.7
			c-0.2,0.2-0.5,0.4-0.9,0.6c-0.3,0.2-0.7,0.2-1.2,0.2H88v-8.2h2.7c0.4,0,0.8,0.1,1.2,0.2c0.3,0.2,0.6,0.3,0.9,0.6
			c0.2,0.2,0.4,0.5,0.5,0.7c0.1,0.3,0.2,0.5,0.3,0.8c0.1,0.3,0.1,0.6,0.1,0.9C93.8,41.1,93.9,41.4,93.9,41.7z M93.2,41.7
			c0-0.2,0-0.5,0-0.8c0-0.3-0.1-0.5-0.1-0.8c-0.1-0.3-0.1-0.5-0.2-0.7c-0.1-0.2-0.3-0.4-0.5-0.6c-0.2-0.2-0.5-0.4-0.7-0.5
			c-0.3-0.1-0.6-0.2-0.9-0.2h-2.1v7h2.1c0.3,0,0.6-0.1,0.9-0.2c0.3-0.1,0.5-0.3,0.7-0.5c0.2-0.2,0.3-0.4,0.5-0.6
			c0.1-0.2,0.2-0.5,0.2-0.7s0.1-0.5,0.1-0.8C93.2,42.2,93.2,42,93.2,41.7z"/>
	</g>
	<g>
		<path class="st0" d="M103,45.8v-8.2h0.6v8.2H103z"/>
	</g>
	<g>
		<path class="st0" d="M118.7,43.6c0,0.4-0.1,0.7-0.2,0.9c-0.1,0.2-0.3,0.5-0.5,0.7c-0.3,0.3-0.6,0.5-1,0.6
			c-0.4,0.1-0.8,0.2-1.3,0.2c-0.5,0-0.9-0.1-1.3-0.2c-0.4-0.1-0.7-0.4-1-0.7c-0.2-0.2-0.4-0.5-0.5-0.7c-0.1-0.3-0.2-0.6-0.2-0.9h0.6
			c0,0.2,0.1,0.5,0.2,0.7c0.1,0.2,0.2,0.4,0.4,0.6c0.2,0.2,0.5,0.4,0.8,0.5c0.3,0.1,0.6,0.2,1,0.2c0.4,0,0.7,0,1-0.1
			c0.3-0.1,0.6-0.3,0.8-0.5c0.1-0.1,0.3-0.3,0.4-0.5c0.1-0.2,0.1-0.4,0.1-0.7c0-0.2,0-0.4-0.1-0.6c-0.1-0.2-0.2-0.3-0.3-0.5
			c-0.1-0.1-0.3-0.3-0.5-0.4c-0.2-0.1-0.4-0.2-0.7-0.2l-1.5-0.2c-0.3,0-0.6-0.1-0.8-0.2c-0.2-0.1-0.5-0.2-0.6-0.4
			c-0.2-0.2-0.3-0.4-0.4-0.6c-0.1-0.2-0.2-0.5-0.2-0.8c0-0.3,0.1-0.6,0.2-0.9c0.1-0.2,0.3-0.5,0.5-0.7c0.3-0.2,0.6-0.4,0.9-0.5
			c0.4-0.1,0.7-0.2,1.1-0.2c0.4,0,0.9,0.1,1.3,0.3c0.4,0.2,0.7,0.4,1,0.7c0.2,0.2,0.3,0.4,0.4,0.6c0.1,0.2,0.2,0.5,0.2,0.8h-0.6
			c0-0.2-0.1-0.4-0.2-0.6c-0.1-0.2-0.2-0.3-0.3-0.5c-0.2-0.2-0.4-0.4-0.7-0.5c-0.3-0.1-0.7-0.2-1-0.2c-0.3,0-0.6,0-0.9,0.1
			c-0.3,0.1-0.5,0.2-0.7,0.4c-0.2,0.1-0.3,0.3-0.4,0.5c-0.1,0.2-0.2,0.4-0.2,0.7c0,0.2,0,0.5,0.1,0.6c0.1,0.2,0.2,0.3,0.3,0.4
			c0.1,0.1,0.3,0.2,0.5,0.3c0.2,0.1,0.4,0.1,0.5,0.1l1.6,0.2c0.3,0,0.6,0.1,0.9,0.3c0.3,0.1,0.5,0.3,0.7,0.5
			c0.2,0.2,0.3,0.4,0.4,0.7S118.7,43.3,118.7,43.6z"/>
	</g>
	<g>
		<path class="st0" d="M127.7,45.8v-8.2h5.3v0.6h-4.7v3h4.1v0.6h-4.1v3.5h4.7v0.6H127.7z"/>
	</g>
	<g>
		<path class="st0" d="M147.4,45.8l-4.8-7.3v7.3h-0.6v-8.2h0.7l4.8,7.3v-7.3h0.6v8.2H147.4z M146.8,36.4c-0.1,0.1-0.3,0.2-0.5,0.3
			c-0.2,0.1-0.3,0.1-0.5,0.1c-0.1,0-0.3,0-0.4-0.1c-0.1-0.1-0.3-0.1-0.4-0.2c-0.1-0.1-0.2-0.1-0.4-0.2c-0.1,0-0.3-0.1-0.4-0.1
			c-0.1,0-0.2,0-0.3,0.1c-0.1,0.1-0.2,0.1-0.3,0.2l-0.3-0.3c0.1-0.1,0.3-0.2,0.4-0.3c0.2-0.1,0.3-0.2,0.5-0.2c0.1,0,0.3,0,0.4,0.1
			c0.1,0.1,0.3,0.1,0.4,0.2c0.1,0.1,0.2,0.1,0.4,0.2c0.1,0.1,0.2,0.1,0.4,0.1c0.1,0,0.3,0,0.4-0.1c0.1-0.1,0.2-0.1,0.3-0.2
			L146.8,36.4z"/>
		<path class="st0" d="M162.9,45.8l-0.8-2.2h-4l-0.8,2.2h-0.6l3.1-8.2h0.6l3.2,8.2H162.9z M160.1,38.4l-1.8,4.7h3.5L160.1,38.4z"/>
	</g>
	<g>
		<path class="st0" d="M177.9,41.7c0,0.3,0,0.6,0,0.9c0,0.3-0.1,0.6-0.1,0.9c-0.1,0.3-0.2,0.6-0.3,0.8c-0.1,0.3-0.3,0.5-0.5,0.7
			c-0.2,0.2-0.5,0.4-0.9,0.6s-0.7,0.2-1.2,0.2h-2.7v-8.2h2.7c0.4,0,0.8,0.1,1.2,0.2c0.3,0.2,0.6,0.3,0.9,0.6
			c0.2,0.2,0.4,0.5,0.5,0.7c0.1,0.3,0.2,0.5,0.3,0.8c0.1,0.3,0.1,0.6,0.1,0.9C177.9,41.1,177.9,41.4,177.9,41.7z M177.3,41.7
			c0-0.2,0-0.5,0-0.8c0-0.3-0.1-0.5-0.1-0.8c-0.1-0.3-0.1-0.5-0.2-0.7s-0.3-0.4-0.5-0.6c-0.2-0.2-0.5-0.4-0.7-0.5
			c-0.3-0.1-0.6-0.2-0.9-0.2h-2.1v7h2.1c0.3,0,0.6-0.1,0.9-0.2c0.3-0.1,0.5-0.3,0.7-0.5c0.2-0.2,0.3-0.4,0.5-0.6
			c0.1-0.2,0.2-0.5,0.2-0.7s0.1-0.5,0.1-0.8C177.3,42.2,177.3,42,177.3,41.7z"/>
	</g>
	<g>
		<path class="st0" d="M192.7,41.7c0,0.3,0,0.6,0,0.9c0,0.3-0.1,0.6-0.1,0.9s-0.2,0.6-0.3,0.9c-0.1,0.3-0.3,0.5-0.6,0.7
			c-0.3,0.2-0.6,0.4-0.9,0.6c-0.4,0.2-0.8,0.2-1.2,0.2c-0.4,0-0.8-0.1-1.2-0.2c-0.4-0.2-0.7-0.4-0.9-0.6c-0.2-0.2-0.4-0.5-0.6-0.7
			c-0.1-0.3-0.2-0.6-0.3-0.9s-0.1-0.6-0.1-0.9s0-0.6,0-0.9c0-0.3,0-0.6,0-0.9c0-0.3,0.1-0.6,0.1-0.9c0.1-0.3,0.2-0.6,0.3-0.9
			c0.1-0.3,0.3-0.5,0.6-0.7c0.3-0.2,0.6-0.4,0.9-0.6c0.4-0.2,0.8-0.2,1.2-0.2c0.4,0,0.8,0.1,1.2,0.2c0.4,0.2,0.7,0.4,0.9,0.6
			c0.2,0.2,0.4,0.5,0.6,0.7c0.1,0.3,0.2,0.6,0.3,0.9c0.1,0.3,0.1,0.6,0.1,0.9C192.7,41.1,192.7,41.4,192.7,41.7z M192.1,41.7
			c0-0.2,0-0.5,0-0.8c0-0.3,0-0.5-0.1-0.8c-0.1-0.3-0.1-0.5-0.3-0.8c-0.1-0.2-0.3-0.5-0.5-0.7c-0.2-0.2-0.5-0.4-0.8-0.5
			c-0.3-0.1-0.6-0.2-0.9-0.2c-0.3,0-0.6,0.1-0.9,0.2c-0.3,0.1-0.5,0.3-0.8,0.5c-0.2,0.2-0.4,0.4-0.5,0.7c-0.1,0.2-0.2,0.5-0.3,0.8
			c-0.1,0.3-0.1,0.5-0.1,0.8c0,0.3,0,0.5,0,0.8c0,0.2,0,0.5,0,0.8c0,0.3,0,0.5,0.1,0.8c0.1,0.3,0.1,0.5,0.3,0.8
			c0.1,0.3,0.3,0.5,0.5,0.7c0.2,0.2,0.5,0.4,0.8,0.5c0.3,0.1,0.6,0.2,0.9,0.2c0.3,0,0.6-0.1,0.9-0.2c0.3-0.1,0.5-0.3,0.8-0.5
			c0.2-0.2,0.4-0.4,0.5-0.7c0.1-0.3,0.2-0.5,0.3-0.8c0.1-0.3,0.1-0.5,0.1-0.8C192.1,42.2,192.1,42,192.1,41.7z"/>
	</g>
	<g>
		<path class="st0" d="M207.7,40c0,0.5-0.2,1-0.5,1.4c-0.3,0.4-0.7,0.7-1.2,0.8l1.7,3.7H207l-1.6-3.5h-2.9v3.5h-0.6v-8.2h3
			c0.4,0,0.8,0.1,1.2,0.2c0.3,0.1,0.6,0.3,0.9,0.5c0.2,0.2,0.4,0.5,0.5,0.7C207.6,39.3,207.7,39.6,207.7,40z M207,40
			c0-0.6-0.2-1-0.6-1.3c-0.4-0.3-0.9-0.5-1.6-0.5h-2.4v3.6h2.4c0.7,0,1.2-0.2,1.6-0.5S207,40.6,207,40z"/>
	</g>
	<g>
		<path class="st0" d="M231.6,45.8l-0.1-1.3c-0.1,0.2-0.2,0.4-0.4,0.6c-0.2,0.2-0.4,0.3-0.6,0.4c-0.2,0.1-0.4,0.2-0.7,0.3
			c-0.2,0.1-0.5,0.1-0.7,0.1c-0.4,0-0.8-0.1-1.2-0.2c-0.4-0.2-0.7-0.4-0.9-0.6c-0.2-0.2-0.4-0.5-0.5-0.7c-0.1-0.3-0.2-0.6-0.3-0.8
			c-0.1-0.3-0.1-0.6-0.2-0.9c0-0.3,0-0.6,0-0.9c0-0.3,0-0.6,0-0.9c0-0.3,0.1-0.6,0.2-0.9c0.1-0.3,0.2-0.6,0.3-0.8
			c0.1-0.3,0.3-0.5,0.5-0.7c0.3-0.3,0.6-0.5,1-0.6c0.4-0.2,0.8-0.3,1.2-0.3c0.4,0,0.8,0.1,1.2,0.2c0.4,0.1,0.7,0.3,0.9,0.5
			c0.3,0.2,0.5,0.5,0.6,0.8c0.2,0.3,0.2,0.6,0.3,1h-0.6c0-0.3-0.1-0.5-0.2-0.7c-0.1-0.2-0.2-0.4-0.4-0.5c-0.2-0.2-0.5-0.4-0.8-0.5
			c-0.3-0.1-0.6-0.1-1-0.1c-0.4,0-0.7,0.1-1,0.2c-0.3,0.1-0.5,0.3-0.7,0.5c-0.2,0.2-0.3,0.4-0.5,0.6c-0.1,0.2-0.2,0.5-0.3,0.8
			c-0.1,0.3-0.1,0.5-0.1,0.8c0,0.3,0,0.5,0,0.8c0,0.2,0,0.5,0,0.8c0,0.3,0.1,0.6,0.1,0.8c0.1,0.3,0.2,0.5,0.3,0.8
			c0.1,0.2,0.3,0.5,0.5,0.6c0.4,0.4,1,0.6,1.7,0.6c0.3,0,0.6-0.1,0.9-0.2c0.3-0.1,0.5-0.3,0.7-0.5c0.2-0.2,0.3-0.4,0.4-0.6
			c0.1-0.2,0.2-0.4,0.2-0.6c0-0.2,0.1-0.4,0.1-0.7c0-0.2,0-0.5,0-0.7H229v-0.6h3v4.3H231.6z"/>
		<path class="st0" d="M247.2,40c0,0.5-0.2,1-0.5,1.4c-0.3,0.4-0.7,0.7-1.2,0.8l1.7,3.7h-0.7l-1.6-3.5H242v3.5h-0.6v-8.2h3
			c0.4,0,0.8,0.1,1.2,0.2c0.3,0.1,0.6,0.3,0.9,0.5c0.2,0.2,0.4,0.5,0.5,0.7C247.2,39.3,247.2,39.6,247.2,40z M246.6,40
			c0-0.6-0.2-1-0.6-1.3c-0.4-0.3-0.9-0.5-1.6-0.5H242v3.6h2.4c0.7,0,1.2-0.2,1.6-0.5S246.6,40.6,246.6,40z"/>
	</g>
	<g>
		<path class="st0" d="M261.4,45.8l-0.8-2.2h-4l-0.8,2.2h-0.6l3.1-8.2h0.6l3.2,8.2H261.4z M258.5,38.4l-1.8,4.7h3.5L258.5,38.4z
			 M257.5,36.9l-0.2-0.3l1.8-1.3l0.3,0.5L257.5,36.9z"/>
	</g>
	<g>
		<path class="st0" d="M271.1,38.2v3.2h4.1V42h-4.1v3.9h-0.6v-8.2h5.2v0.6H271.1z"/>
	</g>
	<g>
		<path class="st0" d="M284.5,45.8v-8.2h0.6v8.2H284.5z"/>
	</g>
	<g>
		<path class="st0" d="M300.3,43.3c0,0.4-0.1,0.7-0.3,1.1c-0.2,0.3-0.4,0.6-0.6,0.8c-0.3,0.2-0.6,0.4-0.9,0.6
			c-0.3,0.1-0.7,0.2-1.1,0.2c-0.4,0-0.8-0.1-1.2-0.2c-0.4-0.2-0.7-0.4-1-0.7c-0.2-0.2-0.4-0.5-0.5-0.7c-0.1-0.3-0.2-0.6-0.3-0.8
			c-0.1-0.3-0.1-0.6-0.1-0.9c0-0.3,0-0.6,0-0.9c0-0.3,0-0.6,0-0.9c0-0.3,0.1-0.6,0.1-0.9c0.1-0.3,0.2-0.6,0.3-0.8
			c0.1-0.3,0.3-0.5,0.5-0.7c0.3-0.3,0.6-0.5,1-0.7c0.4-0.2,0.8-0.2,1.2-0.2c0.4,0,0.8,0.1,1.1,0.2c0.3,0.1,0.6,0.3,0.9,0.6
			c0.3,0.2,0.5,0.5,0.6,0.8c0.2,0.3,0.2,0.7,0.3,1.1h-0.6c0-0.3-0.1-0.6-0.2-0.8s-0.3-0.5-0.5-0.7c-0.2-0.2-0.4-0.3-0.7-0.4
			c-0.3-0.1-0.6-0.2-0.9-0.2c-0.4,0-0.7,0.1-1,0.2s-0.5,0.3-0.8,0.5c-0.2,0.2-0.3,0.4-0.4,0.7c-0.1,0.2-0.2,0.5-0.2,0.7
			c-0.1,0.3-0.1,0.5-0.1,0.8c0,0.3,0,0.5,0,0.8s0,0.5,0,0.8c0,0.3,0,0.5,0.1,0.8c0.1,0.3,0.1,0.5,0.2,0.8c0.1,0.2,0.2,0.5,0.4,0.6
			c0.5,0.5,1,0.7,1.7,0.7c0.3,0,0.6-0.1,0.9-0.2c0.3-0.1,0.5-0.2,0.7-0.4c0.2-0.2,0.4-0.4,0.5-0.7c0.1-0.3,0.2-0.5,0.2-0.8H300.3z"
			/>
	</g>
	<g>
		<path class="st0" d="M314.9,41.7c0,0.3,0,0.6,0,0.9c0,0.3-0.1,0.6-0.1,0.9s-0.2,0.6-0.3,0.9c-0.1,0.3-0.3,0.5-0.6,0.7
			c-0.3,0.2-0.6,0.4-0.9,0.6c-0.4,0.2-0.8,0.2-1.2,0.2c-0.4,0-0.8-0.1-1.2-0.2c-0.4-0.2-0.7-0.4-0.9-0.6c-0.2-0.2-0.4-0.5-0.6-0.7
			c-0.1-0.3-0.2-0.6-0.3-0.9s-0.1-0.6-0.1-0.9s0-0.6,0-0.9c0-0.3,0-0.6,0-0.9c0-0.3,0.1-0.6,0.1-0.9c0.1-0.3,0.2-0.6,0.3-0.9
			c0.1-0.3,0.3-0.5,0.6-0.7c0.3-0.2,0.6-0.4,0.9-0.6c0.4-0.2,0.8-0.2,1.2-0.2c0.4,0,0.8,0.1,1.2,0.2c0.4,0.2,0.7,0.4,0.9,0.6
			c0.2,0.2,0.4,0.5,0.6,0.7c0.1,0.3,0.2,0.6,0.3,0.9c0.1,0.3,0.1,0.6,0.1,0.9C314.9,41.1,314.9,41.4,314.9,41.7z M314.3,41.7
			c0-0.2,0-0.5,0-0.8c0-0.3,0-0.5-0.1-0.8c-0.1-0.3-0.1-0.5-0.3-0.8c-0.1-0.2-0.3-0.5-0.5-0.7c-0.2-0.2-0.5-0.4-0.8-0.5
			c-0.3-0.1-0.6-0.2-0.9-0.2c-0.3,0-0.6,0.1-0.9,0.2c-0.3,0.1-0.5,0.3-0.8,0.5c-0.2,0.2-0.4,0.4-0.5,0.7c-0.1,0.2-0.2,0.5-0.3,0.8
			c-0.1,0.3-0.1,0.5-0.1,0.8c0,0.3,0,0.5,0,0.8c0,0.2,0,0.5,0,0.8c0,0.3,0,0.5,0.1,0.8c0.1,0.3,0.1,0.5,0.3,0.8
			c0.1,0.3,0.3,0.5,0.5,0.7c0.2,0.2,0.5,0.4,0.8,0.5c0.3,0.1,0.6,0.2,0.9,0.2c0.3,0,0.6-0.1,0.9-0.2c0.3-0.1,0.5-0.3,0.8-0.5
			c0.2-0.2,0.4-0.4,0.5-0.7c0.1-0.3,0.2-0.5,0.3-0.8c0.1-0.3,0.1-0.5,0.1-0.8C314.3,42.2,314.3,42,314.3,41.7z"/>
	</g>
</g>
</svg>
