<?xml version="1.0" encoding="utf-8"?>
<!-- Generator: Adobe Illustrator 27.7.0, SVG Export Plug-In . SVG Version: 6.00 Build 0)  -->
<svg version="1.1" id="Capa_1" xmlns="http://www.w3.org/2000/svg" xmlns:xlink="http://www.w3.org/1999/xlink" x="0px" y="0px"
	 viewBox="0 0 400 400" style="enable-background:new 0 0 400 400;" xml:space="preserve">
<style type="text/css">
	.st0{fill:#C2C2C2;}
</style>
<g>
	<path d="M398.7,319.9c0.1,4.8-0.5,9.6-1.3,14.3c-0.9,5.1-2.5,10-4.2,14.9c-2.8,7.9-7,14.9-12.3,21.4c-5.8,7.1-12.8,12.8-20.7,17.5
		c-7.5,4.4-15.4,7.1-23.8,9.1c-3.8,0.9-7.7,1-11.6,1.6c-1.5,0.2-2.9,0.3-4.4,0.4c-0.7-0.1-1.4-0.1-2.1,0.1c-1.4,0.1-2.8,0.1-4.2,0.2
		c-0.7-0.1-1.4-0.2-2.1,0.1c-4.5,0.1-9,0.2-13.5,0.2c-64.8,0-129.7,0-194.5,0c-7.5,0-15,0-22.5-0.5c-6.4-0.4-12.9-0.8-19.2-2.4
		c-21.1-5.2-37.8-16.6-49.4-35.2c-2.9-4.7-5.2-9.7-7-15c-2-5.9-3.5-11.8-4.1-18c-0.3-2.8-0.6-5.5-0.7-8.3c0.1-0.3,0.2-0.7-0.1-1
		c-0.1-1.4-0.2-2.8-0.3-4.2c0.2-0.9,0.1-1.8-0.1-2.8c-0.1-2.2-0.2-4.4-0.2-6.6c0.1-1.3,0.2-2.5-0.1-3.8c0-60.9,0-121.8,0-182.7
		c0-10.2-0.1-20.3,0.2-30.5c0.2-1,0.3-2.1,0.1-3.1c0.1-1.4,0.2-2.8,0.2-4.2c0.2-0.2,0.2-0.4,0-0.7c0.2-5.2,0.6-10.3,1.5-15.4
		c0.6-3.5,1.7-6.9,2.7-10.3c2.2-7.3,5.7-14.1,10-20.4c6.1-8.9,13.8-16.1,22.9-21.7c5.3-3.3,11-5.8,17-7.7c4.4-1.4,8.8-2.4,13.4-3.1
		c3.7-0.6,7.4-0.9,11.2-1.1c0.8,0.1,1.5,0.2,2.3-0.1c1-0.1,2-0.1,2.9-0.2c1,0.2,2.1,0.1,3.1-0.1c2.1-0.1,4.2-0.1,6.3-0.2
		c1.3,0.1,2.5,0.2,3.8-0.1c59,0,118,0,177,0c10,0,20.1,0,30.1,0.1c4.6,0.1,9.2,0.3,13.7,0.6c6.6,0.5,13.3,0.8,19.7,2.5
		c5.4,1.5,10.8,3.1,15.9,5.6c8.3,4,15.7,9.2,22.1,15.8c4.3,4.5,8,9.4,11.2,14.9c2.7,4.7,5,9.4,6.5,14.5c1.3,4.4,2.7,8.9,3.2,13.6
		c0.4,3.9,1,7.8,1,11.7c-0.2,0.5,0.1,0.8,0.4,1c0.1,1.4,0.2,2.8,0.2,4.2c-0.2,0.9-0.1,1.8,0.1,2.8c0.6,46.1,0.2,92.1,0.3,138.2
		c0.1,25.6,0,51.3,0,76.9c0,2.8-0.1,5.6-0.2,8.5c-0.2,1-0.3,2.1-0.1,3.1c-0.1,1.4-0.2,2.8-0.2,4.2
		C398.6,318.8,398.8,319.4,398.7,319.9z M265.6,158.5c-0.2-0.2-0.4-0.2-0.7,0c-3.8-0.4-7.6-0.3-11.4,0c-0.2-0.2-0.5-0.1-0.7,0
		c-1.4-0.4-2.9,0.1-4.2,0.4c-6,1.2-11.9,2.7-17.4,5.4c-9.7,4.6-18.1,10.8-24.4,19.5c-0.2,0-0.3,0-0.5-0.1c0-6.9,0-13.9,0.1-20.8
		c0-1.5-0.4-1.8-1.8-1.8c-13.9,0.1-27.8,0.1-41.7,0c-1.7,0-2.1,0.4-2.1,2.1c0.1,52.1,0,104.2,0,156.2c0,1.5,0.4,1.8,1.8,1.8
		c14.9-0.1,29.8-0.1,44.7,0c1.5,0,1.9-0.2,1.9-1.9c-0.1-27.6,0-55.2-0.1-82.8c0-5.4,1.1-10.5,3.2-15.5c4.8-11.1,13.7-16.6,25.3-17.9
		c3.5-0.4,7.2,0,10.8,0.6c7.3,1.2,13.3,4.6,17.7,10.6c4.2,5.7,5.5,12.4,5.5,19.3c0.1,28.6,0,57.2-0.1,85.7c0,1.5,0.4,1.9,1.9,1.9
		c14.9-0.1,29.8-0.1,44.7,0c1.6,0,2-0.4,2-2c0-33.7,0-67.3,0-101c0-4-0.6-7.8-1.4-11.7c-0.9-4.7-2.6-9.2-4.6-13.6
		c-3.2-7.1-6.9-14-12.9-19.2C290.9,165,279.2,159.6,265.6,158.5z M83.8,241c0,26.1,0,52.2,0,78.3c0,1.5,0.3,1.9,1.9,1.9
		c15.3-0.1,30.6-0.1,45.9,0c1.4,0,1.8-0.4,1.8-1.8c0-52.2,0-104.4,0-156.6c0-1.3-0.3-1.7-1.7-1.7c-15.3,0.1-30.6,0.1-45.9,0
		c-1.5,0-2,0.3-2,1.9C83.8,189.1,83.8,215,83.8,241z M80.2,109c-0.4,15.3,13.3,28.7,28.4,28.4c15.8-0.3,28.4-12.5,28.3-28.3
		c-0.1-16.5-12.4-28.2-28.3-28.5C92.9,80.4,80.1,93.3,80.2,109z"/>
	<path class="st0" d="M98.3,0.3c-1.3,0.2-2.5,0.2-3.8,0.1C95.7-0.2,97-0.1,98.3,0.3z"/>
	<path class="st0" d="M0.5,301.9c0.2,1.3,0.2,2.5,0.1,3.8C0,304.4,0.1,303.1,0.5,301.9z"/>
	<path class="st0" d="M88.2,0.6c-1,0.2-2.1,0.3-3.1,0.1C86.1,0.2,87.2,0.2,88.2,0.6z"/>
	<path class="st0" d="M0.9,85.6c0.2,1,0.1,2.1-0.1,3.1C0.4,87.7,0.4,86.6,0.9,85.6z"/>
	<path class="st0" d="M399.4,314.3c-0.2-1-0.1-2.1,0.1-3.1C399.9,312.3,399.9,313.3,399.4,314.3z"/>
	<path class="st0" d="M399.5,87.7c-0.2-0.9-0.3-1.8-0.1-2.8C399.9,85.8,399.9,86.8,399.5,87.7z"/>
	<path class="st0" d="M0.8,312.3c0.2,0.9,0.3,1.8,0.1,2.8C0.4,314.1,0.4,313.2,0.8,312.3z"/>
	<path class="st0" d="M82.2,0.9c-0.7,0.3-1.5,0.3-2.3,0.1C80.6,0.5,81.4,0.7,82.2,0.9z"/>
	<path class="st0" d="M318.3,399c0.7-0.3,1.4-0.2,2.1-0.1C319.7,399.3,319,399.4,318.3,399z"/>
	<path class="st0" d="M312.1,399.3c0.7-0.3,1.4-0.2,2.1-0.1C313.5,399.8,312.8,399.7,312.1,399.3z"/>
	<path class="st0" d="M398.7,319.9c0.1-0.5-0.1-1,0.4-1.4C399.5,319.1,399.6,319.6,398.7,319.9z"/>
	<path class="st0" d="M399.1,80.8c-0.3-0.3-0.6-0.6-0.4-1C399.5,79.8,399.5,80.2,399.1,80.8z"/>
	<path class="st0" d="M1.2,319.2c0.2,0.3,0.2,0.7,0.1,1C0.9,319.9,0.8,319.5,1.2,319.2z"/>
	<path class="st0" d="M1.2,80.8c0.2,0.2,0.2,0.5,0,0.7C0.8,81.2,0.9,81,1.2,80.8z"/>
	<path class="st0" d="M253.5,158.4c-0.2,0.3-0.4,0.4-0.7,0C253,158.3,253.3,158.3,253.5,158.4z"/>
	<path class="st0" d="M265.6,158.5c-0.2,0.3-0.5,0.3-0.7,0C265.2,158.3,265.4,158.3,265.6,158.5z"/>
	<path class="st0" d="M206.8,183.8c0,0.3-0.1,0.6-0.5,0.5c-0.2-0.1-0.3-0.4,0-0.5C206.5,183.7,206.6,183.7,206.8,183.8z"/>
</g>
</svg>
