<?xml version="1.0" encoding="utf-8"?>
<!-- Generator: Adobe Illustrator 27.7.0, SVG Export Plug-In . SVG Version: 6.00 Build 0)  -->
<svg version="1.1" id="Capa_1" xmlns="http://www.w3.org/2000/svg" xmlns:xlink="http://www.w3.org/1999/xlink" x="0px" y="0px"
	 viewBox="0 0 400 400" style="enable-background:new 0 0 400 400;" xml:space="preserve">
<style type="text/css">
	.st0{fill:#FFFFFF;}
</style>
<g>
	<path class="st0" d="M200,399.7L200,399.7C89.7,399.7,0.3,310.3,0.3,200l0,0C0.3,89.7,89.7,0.3,200,0.3l0,0
		c110.3,0,199.7,89.4,199.7,199.7l0,0C399.7,310.3,310.3,399.7,200,399.7z"/>
</g>
<g>
	<path d="M120.6,259.1l42.8-10.3c1.2-0.2,2.4-1,3.2-1.8l84.5-88.7c6.5-6.9,6.3-18-0.6-24.4l-19.4-18.4c-6.9-6.7-18-6.5-24.4,0.4
		l-84.5,88.9c-0.8,1-1.4,2-1.6,3.4l-8.1,43.4c-0.4,2.2,0.4,4.4,2,6.1C116,259.1,118.4,259.8,120.6,259.1z M215.3,121.6
		c1.9-1.9,4.9-1.9,6.8-0.2l23.3,22.1c1.9,1.7,1.9,4.9,0.2,6.8l-11.8,12.3l-30.6-28.6L215.3,121.6z M197.7,140.3l30.1,28.6
		l-62.2,65.6l-30.1-28.6L197.7,140.3z M128.4,213l30.5,29l-37.7,9.2L128.4,213z"/>
	<path d="M294.9,261.8c-1.4-3.8-4-6.3-6.1-7.9c-2.2-1.6-4-2.6-6.1-3.4c-3.8-1.6-7.5-2.8-10.9-3.6c-7.1-1.8-13.9-3.2-20.6-4.6
		c-6.7-1.4-13.1-2.8-18.8-4.6c-2.8-1-5.5-2.2-6.9-3.4c-0.8-0.6-0.8-1-1-1l0,0c0-0.2,0-0.4,0-0.6c0-0.6,1-1.8,3.2-3.2
		c2.2-1.2,5-2.2,7.9-3c12.1-3,26.1-3.2,39.2-3h0.2c2.6,0,5-2,5.3-4.6c0.4-2.8-1.8-5.5-4.6-5.9c-14.1-1.6-28.1-2.2-43,0.2
		c-3.6,0.8-7.5,1.6-11.5,3.6c-2,1-4,2.2-5.9,4.2c-1.8,1.8-3.6,4.4-4.4,7.3c-0.6,1.4-0.6,3-0.8,4.4c0,1.6,0.2,3.4,0.8,5
		c1,3.2,3,5.7,4.8,7.5c3.8,3.4,7.5,5,11.1,6.7c14.1,5.7,27.9,7.5,40.4,11.1c3,0.8,6.1,1.8,8.5,3c0.2,0,0.4,0.2,0.6,0.2
		c-1.6,0.6-3.6,1-5.5,1.4c-12.3,2.6-26.1,3.6-39.4,4.4c-13.5,0.8-27.1,1.2-40.8,1.6s-27.3,0.6-41,0.8l-41.2,1
		c-2.2,0-4.2,1.8-4.4,4.2c-0.2,2.6,1.6,4.8,4,5c13.7,1.4,27.5,2.2,41.2,3.2c13.7,0.6,27.5,1.2,41.4,1.4c13.7,0.2,27.7,0.2,41.6-0.4
		c13.9-0.8,27.9-1.4,42.4-4.4c3.6-0.8,7.5-1.8,11.7-3.8c2.2-1.2,4.6-2.2,7.5-6.3c0.6-0.8,1.2-2.4,1.6-3.6c0.2-0.8,0.4-1.8,0.4-2.8
		C296,266,295.5,263.8,294.9,261.8z"/>
</g>
</svg>
