<?xml version="1.0" encoding="utf-8"?>
<!-- Generator: Adobe Illustrator 27.7.0, SVG Export Plug-In . SVG Version: 6.00 Build 0)  -->
<svg version="1.1" id="Capa_1" xmlns="http://www.w3.org/2000/svg" xmlns:xlink="http://www.w3.org/1999/xlink" x="0px" y="0px"
	 viewBox="0 0 400 400" style="enable-background:new 0 0 400 400;" xml:space="preserve">
<style type="text/css">
	.st0{fill:#FFFFFF;}
</style>
<g>
	<path class="st0" d="M200,399.7L200,399.7C89.7,399.7,0.3,310.3,0.3,200l0,0C0.3,89.7,89.7,0.3,200,0.3l0,0
		c110.3,0,199.7,89.4,199.7,199.7l0,0C399.7,310.3,310.3,399.7,200,399.7z"/>
</g>
<g>
	<path d="M299.5,152.9c0-7.5-6.1-13.6-13.7-13.7h-52.4c-2.1-34.7-62.4-34.7-64.5,0h-55.1c-7.4,0-13.4,6-13.4,13.3v47.1
		c0,5.7,2.4,11.1,6.6,14.9v61.1c0,6.5,5.2,11.7,11.7,11.7h164.8c6.5,0,11.7-5.2,11.7-11.7v-63.8c2.7-3.5,4.2-7.8,4.2-12.3
		L299.5,152.9z M201.2,120.7c13.3,0,24.1,8.3,24.5,18.5h-49C177,129,187.9,120.7,201.2,120.7z M120.6,219.8h55.7v4.8
		c0,6,4.8,10.8,10.8,10.8h30c6,0,10.8-4.8,10.8-10.8v-17.4c0-6-4.8-10.8-10.8-10.8h-30c-6,0-10.8,4.8-10.8,10.8v4.8h-55.7
		c-6.9,0-12.4-5.6-12.4-12.4v-47.1c0-3.1,2.5-5.6,5.6-5.6c28.9,0,86.7,0,115.5,0h56.5c3.3,0,5.9,2.6,5.9,5.9v46.8
		c0,6.9-5.6,12.4-12.4,12.4h-53.9c-2.1,0-3.9,1.7-3.9,3.9c0,2.1,1.7,3.9,3.9,3.9c5.9-0.6,57.6,1.6,62.2-1.8v39.5
		c-12.4,0.5-22.7,9.8-24.6,22H139.4c-1.9-12.3-12.2-21.5-24.6-22V219C116.7,219.5,118.6,219.8,120.6,219.8z M184,224.6v-17.4
		c0-1.7,1.4-3,3-3.1h30c1.7,0,3,1.4,3,3.1v17.4c0,1.7-1.4,3-3,3h-30C185.4,227.7,184,226.3,184,224.6z M118.8,279.6
		c-2.2,0-3.9-1.8-3.9-3.9v-10.4c8.1,0.5,15,6.3,16.7,14.3H118.8z M287.5,275.7c0,2.2-1.8,3.9-3.9,3.9h-12.8
		c1.8-8,8.6-13.8,16.7-14.3V275.7z"/>
</g>
</svg>
